999
"DXF R12 Output" (www.mydxf.blogspot.com)
 0 
SECTION
 2 
HEADER
 9 
$ACADVER
 1 
AC1009
 9 
$EXTMIN
 10 
 0 
 20 
 0 
 9 
$EXTMAX
 10 
 8.5 
 20 
 11 
 0 
ENDSEC
 0 
SECTION
 2 
ENTITIES
0
LINE
8
Layer 1
10
3.000000
20
-3.000000
11
-3.000000
21
3.000000
0
LINE
8
Layer 1
10
0.000000
20
-5.000000
11
0.000000
21
5.000000
0
LINE
8
Layer 1
10
8.000000
20
4.000000
11
4.000000
21
8.000000
0
LINE
8
Layer 1
10
6.000000
20
2.000000
11
2.000000
21
6.000000
0
LINE
8
Layer 1
10
4.000000
20
0.000000
11
0.000000
21
4.000000
0
LINE
8
0
10
29.750900
20
38.103600
11
29.460350
21
35.913590
0
LINE
8
0
10
29.460350
20
35.913590
11
28.626377
21
33.906855
0
LINE
8
0
10
28.626377
20
33.906855
11
27.305477
21
32.181248
0
LINE
8
0
10
27.305477
20
32.181248
11
25.554145
21
30.834624
0
LINE
8
0
10
25.554145
20
30.834624
11
23.512269
21
29.991239
0
LINE
8
0
10
23.512269
20
29.991239
11
21.357400
21
29.710110
0
LINE
8
0
10
21.357400
20
29.710110
11
19.202531
21
29.991239
0
LINE
8
0
10
19.202531
20
29.991239
11
17.160655
21
30.834624
0
LINE
8
0
10
17.160655
20
30.834624
11
15.409323
21
32.181248
0
LINE
8
0
10
15.409323
20
32.181248
11
14.088424
21
33.906855
0
LINE
8
0
10
14.088424
20
33.906855
11
13.254455
21
35.913590
0
LINE
8
0
10
13.254455
20
35.913590
11
12.963910
21
38.103600
0
LINE
8
0
10
12.963910
20
38.103600
11
13.254458
21
40.293610
0
LINE
8
0
10
13.254458
20
40.293610
11
14.088429
21
42.300345
0
LINE
8
0
10
14.088429
20
42.300345
11
15.409328
21
44.025952
0
LINE
8
0
10
15.409328
20
44.025952
11
17.160660
21
45.372576
0
LINE
8
0
10
17.160660
20
45.372576
11
19.202536
21
46.215961
0
LINE
8
0
10
19.202536
20
46.215961
11
21.357405
21
46.497090
0
LINE
8
0
10
21.357405
20
46.497090
11
23.512274
21
46.215961
0
LINE
8
0
10
23.512274
20
46.215961
11
25.554150
21
45.372576
0
LINE
8
0
10
25.554150
20
45.372576
11
27.305482
21
44.025952
0
LINE
8
0
10
27.305482
20
44.025952
11
28.626381
21
42.300345
0
LINE
8
0
10
28.626381
20
42.300345
11
29.460350
21
40.293610
0
LINE
8
0
10
29.460350
20
40.293610
11
29.750895
21
38.103600
0
LINE
8
0
10
29.750895
20
38.103600
11
29.750900
21
38.103600
0
LINE
8
0
10
155.413000
20
38.103600
11
155.122450
21
35.913590
0
LINE
8
0
10
155.122450
20
35.913590
11
154.288477
21
33.906855
0
LINE
8
0
10
154.288477
20
33.906855
11
152.967577
21
32.181248
0
LINE
8
0
10
152.967577
20
32.181248
11
151.216245
21
30.834624
0
LINE
8
0
10
151.216245
20
30.834624
11
149.174369
21
29.991239
0
LINE
8
0
10
149.174369
20
29.991239
11
147.019500
21
29.710110
0
LINE
8
0
10
147.019500
20
29.710110
11
144.864631
21
29.991239
0
LINE
8
0
10
144.864631
20
29.991239
11
142.822755
21
30.834624
0
LINE
8
0
10
142.822755
20
30.834624
11
141.071423
21
32.181248
0
LINE
8
0
10
141.071423
20
32.181248
11
139.750524
21
33.906855
0
LINE
8
0
10
139.750524
20
33.906855
11
138.916555
21
35.913590
0
LINE
8
0
10
138.916555
20
35.913590
11
138.626010
21
38.103600
0
LINE
8
0
10
138.626010
20
38.103600
11
138.916558
21
40.293610
0
LINE
8
0
10
138.916558
20
40.293610
11
139.750529
21
42.300345
0
LINE
8
0
10
139.750529
20
42.300345
11
141.071428
21
44.025952
0
LINE
8
0
10
141.071428
20
44.025952
11
142.822760
21
45.372576
0
LINE
8
0
10
142.822760
20
45.372576
11
144.864636
21
46.215961
0
LINE
8
0
10
144.864636
20
46.215961
11
147.019505
21
46.497090
0
LINE
8
0
10
147.019505
20
46.497090
11
149.174374
21
46.215961
0
LINE
8
0
10
149.174374
20
46.215961
11
151.216250
21
45.372576
0
LINE
8
0
10
151.216250
20
45.372576
11
152.967582
21
44.025952
0
LINE
8
0
10
152.967582
20
44.025952
11
154.288481
21
42.300345
0
LINE
8
0
10
154.288481
20
42.300345
11
155.122450
21
40.293610
0
LINE
8
0
10
155.122450
20
40.293610
11
155.412995
21
38.103600
0
LINE
8
0
10
155.412995
20
38.103600
11
155.413000
21
38.103600
0
LINE
8
0
10
38.837100
20
51.385600
11
39.057904
21
52.217749
0
LINE
8
0
10
39.057904
20
52.217749
11
39.414006
21
52.979365
0
LINE
8
0
10
39.414006
20
52.979365
11
40.472982
21
54.241163
0
LINE
8
0
10
40.472982
20
54.241163
11
41.895793
21
55.071330
0
LINE
8
0
10
41.895793
20
55.071330
11
42.706686
21
55.293406
0
LINE
8
0
10
42.706686
20
55.293406
11
43.564200
21
55.370200
0
LINE
8
0
10
124.813000
20
55.370200
11
125.670514
21
55.293406
0
LINE
8
0
10
125.670514
20
55.293406
11
126.481407
21
55.071330
0
LINE
8
0
10
126.481407
20
55.071330
11
127.904218
21
54.241163
0
LINE
8
0
10
127.904218
20
54.241163
11
128.963194
21
52.979365
0
LINE
8
0
10
128.963194
20
52.979365
11
129.319296
21
52.217749
0
LINE
8
0
10
129.319296
20
52.217749
11
129.540100
21
51.385600
0
LINE
8
0
10
40.419800
20
20.837000
11
39.170149
21
20.974256
0
LINE
8
0
10
39.170149
20
20.974256
11
37.993259
21
21.373523
0
LINE
8
0
10
37.993259
20
21.373523
11
36.929468
21
22.016044
0
LINE
8
0
10
36.929468
20
22.016044
11
36.019116
21
22.883065
0
LINE
8
0
10
36.019116
20
22.883065
11
35.318657
21
23.927012
0
LINE
8
0
10
35.318657
20
23.927012
11
34.865426
21
25.084192
0
LINE
8
0
10
34.865426
20
25.084192
11
34.671081
21
26.311675
0
LINE
8
0
10
34.671081
20
26.311675
11
34.747280
21
27.566530
0
LINE
8
0
10
133.630000
20
27.566500
11
133.706199
21
26.311644
0
LINE
8
0
10
133.706199
20
26.311644
11
133.511854
21
25.084160
0
LINE
8
0
10
133.511854
20
25.084160
11
133.058622
21
23.926979
0
LINE
8
0
10
133.058622
20
23.926979
11
132.358161
21
22.883032
0
LINE
8
0
10
132.358161
20
22.883032
11
131.447807
21
22.016010
0
LINE
8
0
10
131.447807
20
22.016010
11
130.384015
21
21.373490
0
LINE
8
0
10
130.384015
20
21.373490
11
129.207122
21
20.974224
0
LINE
8
0
10
129.207122
20
20.974224
11
127.957470
21
20.836970
0
LINE
8
0
10
209.043000
20
47.504300
11
208.902506
21
47.165186
0
LINE
8
0
10
208.902506
20
47.165186
11
208.563380
21
47.024720
0
LINE
8
0
10
208.563000
20
55.849900
11
208.902168
21
55.709392
0
LINE
8
0
10
208.902168
20
55.709392
11
209.042620
21
55.370200
0
LINE
8
0
10
207.844000
20
55.849900
11
207.504860
21
55.990369
0
LINE
8
0
10
207.504860
20
55.990369
11
207.364370
21
56.329500
0
LINE
8
0
10
180.985000
20
56.329500
11
180.844510
21
55.990369
0
LINE
8
0
10
180.844510
20
55.990369
11
180.505370
21
55.849900
0
LINE
8
0
10
179.306000
20
55.370200
11
179.446452
21
55.709392
0
LINE
8
0
10
179.446452
20
55.709392
11
179.785620
21
55.849900
0
LINE
8
0
10
179.786000
20
47.024700
11
179.446874
21
47.165166
0
LINE
8
0
10
179.446874
20
47.165166
11
179.306380
21
47.504280
0
LINE
8
0
10
34.747300
20
27.566500
11
38.837110
21
51.385500
0
LINE
8
0
10
133.630000
20
27.566500
11
129.540190
21
51.385500
0
LINE
8
0
10
124.813000
20
55.370200
11
43.564200
21
55.370200
0
LINE
8
0
10
127.958000
20
20.837000
11
40.419800
21
20.837000
0
LINE
8
0
10
180.505000
20
55.849900
11
179.785560
21
55.849900
0
LINE
8
0
10
180.985000
20
63.332000
11
180.985000
21
56.329500
0
LINE
8
0
10
207.364000
20
63.332000
11
180.985000
21
63.332000
0
LINE
8
0
10
208.563000
20
55.849900
11
207.843560
21
55.849900
0
LINE
8
0
10
207.364000
20
56.329500
11
207.364000
21
63.332000
0
LINE
8
0
10
179.306000
20
47.504300
11
179.306000
21
55.370170
0
LINE
8
0
10
209.043000
20
47.504300
11
209.043000
21
55.370170
0
LINE
8
0
10
208.563000
20
47.024700
11
179.786000
21
47.024700
 0 
ENDSEC
 0 
EOF