<?xml version="1.0" encoding="UTF-8" standalone="no"?>
<svg
   xmlns:dc="http://purl.org/dc/elements/1.1/"
   xmlns:cc="http://creativecommons.org/ns#"
   xmlns:rdf="http://www.w3.org/1999/02/22-rdf-syntax-ns#"
   xmlns:svg="http://www.w3.org/2000/svg"
   xmlns="http://www.w3.org/2000/svg"
   xmlns:sodipodi="http://sodipodi.sourceforge.net/DTD/sodipodi-0.dtd"
   xmlns:inkscape="http://www.inkscape.org/namespaces/inkscape"
   inkscape:version="1.0 (4035a4fb49, 2020-05-01)"
   sodipodi:docname="End Pannel with USB.svg"
   id="svg297"
   version="1.1"
   height="1122.5196850393702"
   width="793.7007874015749"
   viewBox="0 0 793.7007874015749 1122.5196850393702">
  <metadata
     id="metadata301">
    <rdf:RDF>
      <cc:Work
         rdf:about="">
        <dc:format>image/svg+xml</dc:format>
        <dc:type
           rdf:resource="http://purl.org/dc/dcmitype/StillImage" />
        <dc:title></dc:title>
      </cc:Work>
    </rdf:RDF>
  </metadata>
  <sodipodi:namedview
     inkscape:current-layer="g293"
     inkscape:window-maximized="0"
     inkscape:window-y="0"
     inkscape:window-x="0"
     inkscape:cy="346.44038"
     inkscape:cx="477.4077"
     inkscape:zoom="0.75722505"
     showgrid="false"
     id="namedview299"
     inkscape:window-height="913"
     inkscape:window-width="1725"
     inkscape:pageshadow="2"
     inkscape:pageopacity="0"
     guidetolerance="10"
     gridtolerance="10"
     objecttolerance="10"
     borderopacity="1"
     bordercolor="#666666"
     pagecolor="#ffffff" />
  <defs
     id="defs227">
    <marker
       style="overflow:visible"
       refY="0.0"
       refX="0.0"
       orient="auto"
       id="DistanceX">
      <path
         id="path214"
         style="stroke:#000000; stroke-width:0.5"
         d="M 3,-3 L -3,3 M 0,-5 L  0,5" />
    </marker>
    <pattern
       y="0"
       x="0"
       height="8"
       width="8"
       patternUnits="userSpaceOnUse"
       id="Hatch">
      <path
         id="path217"
         linecap="square"
         stroke-width="0.25"
         stroke="#000000"
         d="M8 4 l-4,4" />
      <path
         id="path219"
         linecap="square"
         stroke-width="0.25"
         stroke="#000000"
         d="M6 2 l-4,4" />
      <path
         id="path221"
         linecap="square"
         stroke-width="0.25"
         stroke="#000000"
         d="M4 0 l-4,4" />
    </pattern>
    <symbol
       id="*Model_Space" />
    <symbol
       id="*Paper_Space" />
    <symbol
       id="*Paper_Space0" />
  </defs>
  <g
     id="g293"
     inkscape:label="0"
     inkscape:groupmode="layer">
    <path
       id="path229"
       style="fill:none;stroke:#000000;stroke-width:0.507606;stroke-linecap:round"
       d="m 29.750913,38.103633 a 8.3934869,8.3934869 0 1 0 -16.78697,0 8.3934869,8.3934869 0 1 0 16.78697,0 z" />
    <path
       id="path231"
       style="fill:none;stroke:#000000;stroke-width:0.507606;stroke-linecap:round"
       d="m 155.41339,38.103633 a 8.39349,8.39349 0 1 0 -16.78698,0 8.39349,8.39349 0 1 0 16.78698,0 z" />
    <path
       id="path233"
       style="fill:none;stroke:#000000;stroke-width:0.507606;stroke-linecap:round"
       d="m 38.837093,51.385563 a 4.7962777,4.7962777 0 0 0 4.7271,3.9846" />
    <path
       id="path235"
       style="fill:none;stroke:#000000;stroke-width:0.507606;stroke-linecap:round"
       d="m 124.81314,55.370163 a 4.7962777,4.7962777 0 0 0 4.7271,-3.9846" />
    <path
       id="path237"
       style="fill:none;stroke:#000000;stroke-width:0.507606;stroke-linecap:round"
       d="m 40.419803,20.837013 a 5.7555334,5.7555334 0 0 0 -5.67252,6.72953" />
    <path
       id="path239"
       style="fill:none;stroke:#000000;stroke-width:0.507606;stroke-linecap:round"
       d="m 133.63005,27.566543 a 5.7555334,5.7555334 0 0 0 -5.67253,-6.72953" />
    <path
       id="path241"
       style="fill:none;stroke:#000000;stroke-width:0.507606;stroke-linecap:round"
       d="m 209.04294,47.504293 a 0.47962782,0.47962782 0 0 0 -0.47962,-0.47958" />
    <path
       id="path243"
       style="fill:none;stroke:#000000;stroke-width:0.507606;stroke-linecap:round"
       d="m 208.56332,55.849863 a 0.47962782,0.47962782 0 0 0 0.47962,-0.4797" />
    <path
       id="path245"
       style="fill:none;stroke:#000000;stroke-width:0.507606;stroke-linecap:round"
       d="m 207.84388,55.849863 a 0.47962782,0.47962782 0 0 0 -0.47963,0.4796" />
    <path
       id="path247"
       style="fill:none;stroke:#000000;stroke-width:0.507606;stroke-linecap:round"
       d="m 180.98472,56.329463 a 0.47962782,0.47962782 0 0 0 -0.47963,-0.4796" />
    <path
       id="path249"
       style="fill:none;stroke:#000000;stroke-width:0.507606;stroke-linecap:round"
       d="m 179.30603,55.370163 a 0.47962782,0.47962782 0 0 0 0.47962,0.4797" />
    <path
       id="path251"
       style="fill:none;stroke:#000000;stroke-width:0.507606;stroke-linecap:round"
       d="m 179.78565,47.024713 a 0.47962782,0.47962782 0 0 0 -0.47962,0.47958" />
    <path
       id="path253"
       style="fill:none;stroke:#000000;stroke-width:0.507606;stroke-linecap:round"
       d="m 34.747283,27.566543 4.08981,23.81902" />
    <path
       id="path255"
       style="fill:none;stroke:#000000;stroke-width:0.507606;stroke-linecap:round"
       d="m 133.63005,27.566543 -4.08981,23.81902" />
    <path
       id="path257"
       style="fill:none;stroke:#000000;stroke-width:0.507606;stroke-linecap:round"
       d="M 124.81314,55.370163 H 43.564193" />
    <path
       id="path259"
       style="fill:none;stroke:#000000;stroke-width:0.507606;stroke-linecap:round"
       d="M 127.95752,20.837013 H 40.419803" />
    <path
       id="path261"
       style="fill:none;stroke:#000000;stroke-width:0.507606;stroke-linecap:round"
       d="m 180.50509,55.849863 h -0.71944" />
    <path
       id="path263"
       style="fill:none;stroke:#000000;stroke-width:0.507606;stroke-linecap:round"
       d="m 180.98472,63.331963 v -7.0025" />
    <path
       id="path265"
       style="fill:none;stroke:#000000;stroke-width:0.507606;stroke-linecap:round"
       d="M 207.36425,63.331963 H 180.98472" />
    <path
       id="path267"
       style="fill:none;stroke:#000000;stroke-width:0.507606;stroke-linecap:round"
       d="m 208.56332,55.849863 h -0.71944" />
    <path
       id="path269"
       style="fill:none;stroke:#000000;stroke-width:0.507606;stroke-linecap:round"
       d="m 207.36425,56.329463 v 7.0025" />
    <path
       id="path271"
       style="fill:none;stroke:#000000;stroke-width:0.507606;stroke-linecap:round"
       d="m 179.30603,47.504293 v 7.86587" />
    <path
       id="path273"
       style="fill:none;stroke:#000000;stroke-width:0.507606;stroke-linecap:round"
       d="m 209.04294,47.504293 v 7.86587" />
    <path
       id="path283"
       style="fill:none;stroke:#000000;stroke-width:0.507606;stroke-linecap:round"
       d="M 208.56332,47.024713 H 179.78565" />
  </g>
  <desc
     id="desc295">End Pannel with USB.DXF - scale = 50.000000, origin = (0.000000, 0.000000), method = manual</desc>
</svg>
