999
"DXF R12 Output" (www.mydxf.blogspot.com)
 0 
SECTION
 2 
HEADER
 9 
$ACADVER
 1 
AC1009
 9 
$EXTMIN
 10 
 0 
 20 
 0 
 9 
$EXTMAX
 10 
 8.5 
 20 
 11 
 0 
ENDSEC
 0 
SECTION
 2 
ENTITIES
0
LINE
8
Layer 1
10
3.000000
20
-3.000000
11
-3.000000
21
3.000000
0
LINE
8
Layer 1
10
0.000000
20
-5.000000
11
0.000000
21
5.000000
0
LINE
8
Layer 1
10
8.000000
20
4.000000
11
4.000000
21
8.000000
0
LINE
8
Layer 1
10
6.000000
20
2.000000
11
2.000000
21
6.000000
0
LINE
8
Layer 1
10
4.000000
20
0.000000
11
0.000000
21
4.000000
0
LINE
8
0
10
56.067500
20
47.142200
11
55.879477
21
45.697689
0
LINE
8
0
10
55.879477
20
45.697689
11
55.332269
21
44.373461
0
LINE
8
0
10
55.332269
20
44.373461
11
54.463139
21
43.234326
0
LINE
8
0
10
54.463139
20
43.234326
11
53.309350
21
42.345093
0
LINE
8
0
10
53.309350
20
42.345093
11
51.963355
21
41.788084
0
LINE
8
0
10
51.963355
20
41.788084
11
50.542600
21
41.602414
0
LINE
8
0
10
50.542600
20
41.602414
11
49.121845
21
41.788084
0
LINE
8
0
10
49.121845
20
41.788084
11
47.775850
21
42.345093
0
LINE
8
0
10
47.775850
20
42.345093
11
46.622061
21
43.234326
0
LINE
8
0
10
46.622061
20
43.234326
11
45.752931
21
44.373461
0
LINE
8
0
10
45.752931
20
44.373461
11
45.205723
21
45.697689
0
LINE
8
0
10
45.205723
20
45.697689
11
45.017700
21
47.142200
0
LINE
8
0
10
45.017700
20
47.142200
11
45.205723
21
48.586711
0
LINE
8
0
10
45.205723
20
48.586711
11
45.752931
21
49.910939
0
LINE
8
0
10
45.752931
20
49.910939
11
46.622061
21
51.050074
0
LINE
8
0
10
46.622061
20
51.050074
11
47.775850
21
51.939307
0
LINE
8
0
10
47.775850
20
51.939307
11
49.121845
21
52.496316
0
LINE
8
0
10
49.121845
20
52.496316
11
50.542600
21
52.681986
0
LINE
8
0
10
50.542600
20
52.681986
11
51.963355
21
52.496316
0
LINE
8
0
10
51.963355
20
52.496316
11
53.309350
21
51.939307
0
LINE
8
0
10
53.309350
20
51.939307
11
54.463139
21
51.050074
0
LINE
8
0
10
54.463139
20
51.050074
11
55.332269
21
49.910939
0
LINE
8
0
10
55.332269
20
49.910939
11
55.879477
21
48.586711
0
LINE
8
0
10
55.879477
20
48.586711
11
56.067500
21
47.142200
0
LINE
8
0
10
56.067500
20
47.142200
11
56.067500
21
47.142200
0
LINE
8
0
10
75.987900
20
47.142200
11
75.827966
21
45.673561
0
LINE
8
0
10
75.827966
20
45.673561
11
75.296345
21
44.321901
0
LINE
8
0
10
75.296345
20
44.321901
11
74.430893
21
43.155454
0
LINE
8
0
10
74.430893
20
43.155454
11
73.269469
21
42.242452
0
LINE
8
0
10
73.269469
20
42.242452
11
71.907650
21
41.669802
0
LINE
8
0
10
71.907650
20
41.669802
11
70.467800
21
41.478918
0
LINE
8
0
10
70.467800
20
41.478918
11
69.027950
21
41.669802
0
LINE
8
0
10
69.027950
20
41.669802
11
67.666131
21
42.242452
0
LINE
8
0
10
67.666131
20
42.242452
11
66.504707
21
43.155454
0
LINE
8
0
10
66.504707
20
43.155454
11
65.639255
21
44.321901
0
LINE
8
0
10
65.639255
20
44.321901
11
65.107634
21
45.673561
0
LINE
8
0
10
65.107634
20
45.673561
11
64.947700
21
47.142200
0
LINE
8
0
10
64.947700
20
47.142200
11
65.107634
21
48.610839
0
LINE
8
0
10
65.107634
20
48.610839
11
65.639255
21
49.962499
0
LINE
8
0
10
65.639255
20
49.962499
11
66.504707
21
51.128946
0
LINE
8
0
10
66.504707
20
51.128946
11
67.666131
21
52.041948
0
LINE
8
0
10
67.666131
20
52.041948
11
69.027950
21
52.614598
0
LINE
8
0
10
69.027950
20
52.614598
11
70.467800
21
52.805482
0
LINE
8
0
10
70.467800
20
52.805482
11
71.907650
21
52.614598
0
LINE
8
0
10
71.907650
20
52.614598
11
73.269469
21
52.041948
0
LINE
8
0
10
73.269469
20
52.041948
11
74.430893
21
51.128946
0
LINE
8
0
10
74.430893
20
51.128946
11
75.296345
21
49.962499
0
LINE
8
0
10
75.296345
20
49.962499
11
75.827966
21
48.610839
0
LINE
8
0
10
75.827966
20
48.610839
11
75.987900
21
47.142200
0
LINE
8
0
10
75.987900
20
47.142200
11
75.987900
21
47.142200
0
LINE
8
0
10
165.932000
20
47.142200
11
165.771623
21
45.673945
0
LINE
8
0
10
165.771623
20
45.673945
11
165.239758
21
44.322721
0
LINE
8
0
10
165.239758
20
44.322721
11
164.374253
21
43.156708
0
LINE
8
0
10
164.374253
20
43.156708
11
163.212954
21
42.244086
0
LINE
8
0
10
163.212954
20
42.244086
11
161.851392
21
41.671684
0
LINE
8
0
10
161.851392
20
41.671684
11
160.411850
21
41.480884
0
LINE
8
0
10
160.411850
20
41.480884
11
158.972308
21
41.671684
0
LINE
8
0
10
158.972308
20
41.671684
11
157.610746
21
42.244086
0
LINE
8
0
10
157.610746
20
42.244086
11
156.449447
21
43.156708
0
LINE
8
0
10
156.449447
20
43.156708
11
155.583942
21
44.322721
0
LINE
8
0
10
155.583942
20
44.322721
11
155.052077
21
45.673945
0
LINE
8
0
10
155.052077
20
45.673945
11
154.891700
21
47.142200
0
LINE
8
0
10
154.891700
20
47.142200
11
155.052077
21
48.610455
0
LINE
8
0
10
155.052077
20
48.610455
11
155.583942
21
49.961679
0
LINE
8
0
10
155.583942
20
49.961679
11
156.449447
21
51.127692
0
LINE
8
0
10
156.449447
20
51.127692
11
157.610746
21
52.040314
0
LINE
8
0
10
157.610746
20
52.040314
11
158.972308
21
52.612716
0
LINE
8
0
10
158.972308
20
52.612716
11
160.411850
21
52.803516
0
LINE
8
0
10
160.411850
20
52.803516
11
161.851392
21
52.612716
0
LINE
8
0
10
161.851392
20
52.612716
11
163.212954
21
52.040314
0
LINE
8
0
10
163.212954
20
52.040314
11
164.374253
21
51.127692
0
LINE
8
0
10
164.374253
20
51.127692
11
165.239758
21
49.961679
0
LINE
8
0
10
165.239758
20
49.961679
11
165.771623
21
48.610455
0
LINE
8
0
10
165.771623
20
48.610455
11
165.932000
21
47.142200
0
LINE
8
0
10
165.932000
20
47.142200
11
165.932000
21
47.142200
0
LINE
8
0
10
185.862000
20
47.142200
11
185.673977
21
45.697689
0
LINE
8
0
10
185.673977
20
45.697689
11
185.126769
21
44.373461
0
LINE
8
0
10
185.126769
20
44.373461
11
184.257639
21
43.234326
0
LINE
8
0
10
184.257639
20
43.234326
11
183.103850
21
42.345093
0
LINE
8
0
10
183.103850
20
42.345093
11
181.757855
21
41.788084
0
LINE
8
0
10
181.757855
20
41.788084
11
180.337100
21
41.602414
0
LINE
8
0
10
180.337100
20
41.602414
11
178.916345
21
41.788084
0
LINE
8
0
10
178.916345
20
41.788084
11
177.570350
21
42.345093
0
LINE
8
0
10
177.570350
20
42.345093
11
176.416561
21
43.234326
0
LINE
8
0
10
176.416561
20
43.234326
11
175.547431
21
44.373461
0
LINE
8
0
10
175.547431
20
44.373461
11
175.000223
21
45.697689
0
LINE
8
0
10
175.000223
20
45.697689
11
174.812200
21
47.142200
0
LINE
8
0
10
174.812200
20
47.142200
11
175.000223
21
48.586711
0
LINE
8
0
10
175.000223
20
48.586711
11
175.547431
21
49.910939
0
LINE
8
0
10
175.547431
20
49.910939
11
176.416561
21
51.050074
0
LINE
8
0
10
176.416561
20
51.050074
11
177.570350
21
51.939307
0
LINE
8
0
10
177.570350
20
51.939307
11
178.916345
21
52.496316
0
LINE
8
0
10
178.916345
20
52.496316
11
180.337100
21
52.681986
0
LINE
8
0
10
180.337100
20
52.681986
11
181.757855
21
52.496316
0
LINE
8
0
10
181.757855
20
52.496316
11
183.103850
21
51.939307
0
LINE
8
0
10
183.103850
20
51.939307
11
184.257639
21
51.050074
0
LINE
8
0
10
184.257639
20
51.050074
11
185.126769
21
49.910939
0
LINE
8
0
10
185.126769
20
49.910939
11
185.673977
21
48.586711
0
LINE
8
0
10
185.673977
20
48.586711
11
185.862000
21
47.142200
0
LINE
8
0
10
185.862000
20
47.142200
11
185.862000
21
47.142200
0
LINE
8
0
10
14.287400
20
50.311200
11
14.287400
21
32.065000
0
LINE
8
0
10
14.287400
20
50.311200
11
36.857500
21
50.311200
0
LINE
8
0
10
36.857500
20
50.311200
11
36.857500
21
32.065000
0
LINE
8
0
10
194.023000
20
50.311200
11
194.023000
21
32.065000
0
LINE
8
0
10
216.593000
20
32.065000
11
194.022900
21
32.065000
0
LINE
8
0
10
216.593000
20
50.311200
11
216.593000
21
32.065000
0
LINE
8
0
10
216.593000
20
50.311200
11
194.022900
21
50.311200
0
LINE
8
0
10
14.287400
20
32.065000
11
36.857500
21
32.065000
0
LINE
8
0
10
93.911500
20
57.418200
11
93.911500
21
62.410310
0
LINE
8
0
10
138.082000
20
62.411300
11
93.911500
21
62.411300
0
LINE
8
0
10
138.082000
20
57.418200
11
138.082000
21
62.410310
0
LINE
8
0
10
138.082000
20
57.418200
11
93.911500
21
57.418200
 0 
ENDSEC
 0 
EOF